<?xml version="1.0" standalone="no"?>
<!DOCTYPE svg PUBLIC "-//W3C//DTD SVG 1.1//EN" "http://www.w3.org/Graphics/SVG/1.1/DTD/svg11.dtd" >
<svg xmlns="http://www.w3.org/2000/svg">
  <metadata>Created by iconfont</metadata>
  <defs>
  <font id="action-jeecg" horiz-adv-x="1024">
    <font-face
      font-family="action-jeecg"
      font-weight="400"
      font-stretch="normal"
      units-per-em="1024"
      ascent="896"
      descent="-128"
    />
      <missing-glyph />
      
      <glyph glyph-name="gongyehulianwangzhuce" unicode="&#58920;" d="M512 788.9c-223.3 0-404.9-181.6-404.9-404.9S288.7-20.9 512-20.9 916.9 160.7 916.9 384 735.3 788.9 512 788.9z m344-375.1H685.9c-5.1 113.7-39.1 221.2-96.5 306.8C733.2 687.5 843.1 564.3 856 413.8z m-439.9 0c5.5 113.9 42.8 220.1 105 299.4 62.2-79.3 99.5-185.5 105-299.4h-210z m210.1-59.6c-5.6-113.8-42.9-219.9-105-299.1-62.1 79.2-99.4 185.3-105 299.1h210zM455.7 724.7c-59.1-86.2-94.2-195.3-99.4-310.9H168c13.5 157.8 133.6 285.5 287.7 310.9zM168 354.2h188.4c5.2-115.6 40.4-224.7 99.6-310.9-154.3 25.2-274.4 153.1-288 310.9z m421.1-306.8c57.5 85.6 91.6 193 96.8 306.8H856c-12.9-150.6-122.9-273.9-266.9-306.8z"  horiz-adv-x="1024" />
      
      <glyph glyph-name="zhongyangyoubu" unicode="&#58913;" d="M802.8 712.4H474.1V818.9H238.4v-106.5h-18c-41.9 0-75.9-32.4-75.9-72.2v-618.9c0-39.8 34.1-72.2 75.9-72.2h582.3c42.3 0 76.8 32.4 76.8 72.2V640.1c0 39.8-34.4 72.3-76.7 72.3zM298 759.3h116.5v-46.9H298v46.9z m521.9-738c0-5.9-7.3-12.6-17.2-12.6H220.4c-9.2 0-16.3 6.8-16.3 12.6V640.2c0 5.8 7.1 12.6 16.3 12.6h582.3c9.8 0 17.2-6.7 17.2-12.7v-618.8zM700.4 592.6h-46.3c-31.4 0-56.9-24.9-56.9-55.4v-279.6c0-30.6 25.5-55.4 56.9-55.4h46.3c32.3 0 57.6 24.4 57.6 55.4V537.2c0 30.6-25.8 55.4-57.6 55.4z m-2-330.8h-41.6V533h41.6v-271.2z"  horiz-adv-x="1024" />
      
      <glyph glyph-name="jihuapaiban" unicode="&#58914;" d="M356.1 539.4c-16.5 0-29.8-13.3-29.8-29.8v-232.3h-69c-16.5 0-29.8-13.3-29.8-29.8s13.3-29.8 29.8-29.8H767c16.5 0 29.8 13.3 29.8 29.8s-13.3 29.8-29.8 29.8h-69V513.7c0 16.5-13.3 29.8-29.8 29.8s-29.8-13.3-29.8-29.8v-236.4h-96.5V511.7c0 16.5-13.3 29.8-29.8 29.8s-29.8-13.3-29.8-29.8v-234.3h-96.5V509.6c0.1 16.5-13.3 29.8-29.7 29.8zM154.5 641.6h783.6L780.8 798.9l-42.1-42.2 55.5-55.5H94.9v-446.9h59.6zM869.5 126.4H85.9l157.3-157.3 42.1 42.2-55.5 55.5h699.3V513.7h-59.6z"  horiz-adv-x="1024" />
      
      <glyph glyph-name="gongjiaotiaoduzhibiao" unicode="&#58915;" d="M154.5 641.6h783.6L780.8 798.9l-42.1-42.2 55.5-55.5H94.9v-446.9h59.6zM869.5 126.4H85.9l157.3-157.3 42.1 42.2-55.5 55.5h699.3V513.7h-59.6zM461.3 445.6L315.5 299.8l42.1-42.2 103.7 103.7 73.9-73.9 97.8 97.9 55.6-55.6 24.7 176-176-24.7 53.6-53.6-55.7-55.7z"  horiz-adv-x="1024" />
      
      <glyph glyph-name="chejujiankongfenxi" unicode="&#58916;" d="M915.9 39.6l-24.1 102.5c-3.8 16-19.8 26-35.8 22.2s-26-19.8-22.2-35.8l15.5-65.9H174.7l15.5 65.9c3.8 16-6.2 32.1-22.2 35.8-16 3.8-32.1-6.2-35.8-22.2l-24.1-102.5c-2.1-8.9 0-18.2 5.7-25.3s14.3-11.3 23.4-11.3H887c9.1 0 17.7 4.2 23.4 11.3 5.5 7.1 7.6 16.4 5.5 25.3zM258.6 464.4l203.5-59.7 59.7-203.5c7.7-34.8 27-56 51.7-57h1.4c10 0 36.9 4.1 49.7 45.7l188.8 493.5c17.8 36.3 5.7 57.8-3.1 67.5l-1.9 1.9c-9.7 8.9-31.3 20.9-67.5 3.1L247.3 567.1c-43.7-13.4-46-42.4-45.7-51 1-24.8 22.2-44 57-51.7z m496.2 233L575.7 229.1l-56 191 47.4 47.4c11.6 11.6 11.6 30.5 0 42.1s-30.5 11.6-42.1 0l-47.4-47.4-191 56 468.2 179.2z"  horiz-adv-x="1024" />
      
      <glyph glyph-name="baobiaozhanshi" unicode="&#58917;" d="M496.1 712.3h-29.8c-206.6 0-374.7-168.1-374.7-374.7s168.1-374.7 374.7-374.7S841 131 841 337.6v29.8H496.1V712.3zM780 307.8C765 148 630 22.5 466.3 22.5c-173.8 0-315.1 141.4-315.1 315.1 0 163.7 125.5 298.6 285.3 313.7v-343.5H780zM557.7 805.1h-29.8v-404.5h404.5v29.8c0 206.6-168.1 374.7-374.7 374.7z m29.8-344.9V744.1c150-14.1 269.8-133.9 283.9-283.9H587.5z"  horiz-adv-x="1024" />
      
      <glyph glyph-name="BRTcheliangbeian" unicode="&#58918;" d="M877 673.5l-3.8 16.5L512 805.2 150.9 690l-3.8-16.5c-2.1-8.8-49.5-217.8 26.9-402 54-130.4 151.3-220.9 325.3-302.7l12.7-6 12.7 6C698.7 50.6 796 141.1 850 271.5c76.4 184.2 29 393.2 27 402z m-82-379.2C748.4 182 663.4 102 512 28.8 360.6 102 275.6 182 229 294.3c-57.4 138.4-36.1 298.6-27.1 349.4L512 742.6l310.1-98.9c9-50.8 30.3-211-27.1-349.4zM700.7 553.6L509.1 362 382 489.1c-11.6 11.6-30.5 11.6-42.2 0-11.6-11.6-11.6-30.5 0-42.1l148.3-148.3c5.8-5.8 13.4-8.7 21.1-8.7 7.6 0 15.3 2.9 21.1 8.7L743 511.4c11.6 11.6 11.6 30.5 0 42.1-11.7 11.7-30.6 11.7-42.3 0.1z"  horiz-adv-x="1024" />
      
      <glyph glyph-name="fuzhujuecefenxi" unicode="&#58919;" d="M843.4 461.4c-13.6 0-26.6-3-38.2-8.3L595 661.8c5.9 12.2 9.3 25.9 9.3 40.3 0 50.9-41.3 92.2-92.2 92.2s-92.2-41.3-92.2-92.2c0-14.5 3.3-28.2 9.3-40.3l-207.6-206c-12.3 6.1-26.2 9.6-41 9.6-50.9 0-92.2-41.3-92.2-92.2s41.3-92.2 92.2-92.2 92.2 41.3 92.2 92.2c0 14.5-3.3 28.2-9.3 40.3l207.5 206c4.6-2.3 9.4-4.2 14.5-5.7V435c-38-11.4-65.7-46.6-65.7-88.3 0-18.4 5.4-35.5 14.7-49.9l-111-140.1c-5.4 1-11 1.5-16.7 1.5-50.9 0-92.2-41.3-92.2-92.2s41.3-92.2 92.2-92.2S399 15 399 65.9c0 23.4-8.7 44.7-23.1 61l105.2 132.8c9.6-3.4 20-5.3 30.8-5.3s21.2 1.9 30.8 5.3l106.6-134.5c-9.3-14.4-14.7-31.5-14.7-49.9 0-50.9 41.3-92.2 92.2-92.2s92.2 41.3 92.2 92.2-41.3 92.2-92.2 92.2c-10.8 0-21.2-1.9-30.8-5.3L589.6 296.7c9.3 14.4 14.7 31.5 14.7 49.9 0 41.7-27.7 77-65.7 88.3V613.7c5 1.5 9.8 3.4 14.5 5.7l208.8-207.3c-6.8-12.8-10.6-27.5-10.6-43 0-50.9 41.3-92.2 92.2-92.2s92.2 41.3 92.2 92.2-41.4 92.3-92.3 92.3z"  horiz-adv-x="1024" />
      
      <glyph glyph-name="zidongpaiban" unicode="&#58894;" d="M908.6 735.6H695.8v52.7c0 16.5-13.3 29.8-29.8 29.8s-29.8-13.3-29.8-29.8v-52.7H371.7v52.7c0 16.5-13.3 29.8-29.8 29.8S312 804.8 312 788.4v-52.7H115.4c-16.5 0-29.8-13.3-29.8-29.8v-726.2c0-16.5 13.3-29.8 29.8-29.8h793.1c16.5 0 29.8 13.3 29.8 29.8V705.8c0.1 16.5-13.3 29.8-29.7 29.8zM312 676v-46.9c0-16.5 13.3-29.8 29.8-29.8s29.8 13.3 29.8 29.8V676h264.5v-46.9c0-16.5 13.3-29.8 29.8-29.8s29.8 13.3 29.8 29.8V676h182.9v-88.6H145.3V676H312zM145.3 9.4V527.8h733.5v-518.4H145.3zM605.9 237C633 262.2 650 298.2 650 338c0 76.1-61.9 138-138 138s-138-61.9-138-138c0-39.8 17-75.7 44-100.9-67.4-34.3-113.7-104.4-113.7-185H364c0 81.6 66.4 148 148 148s148-66.4 148-148h59.6c0 80.6-46.3 150.6-113.7 184.9zM433.6 338c0 43.2 35.2 78.4 78.4 78.4s78.4-35.2 78.4-78.4-35.2-78.4-78.4-78.4-78.4 35.2-78.4 78.4z"  horiz-adv-x="1024" />
      
      <glyph glyph-name="lvyougongjiaoyunyingjiance" unicode="&#58893;" d="M741.5 504.2l12.4-5.7 12.4 5.7c19.4 8.9 189 90.1 164 203.8-5.9 26.7-22 49-45.5 62.6-23.1 13.4-51.1 17-74.9 9.6-22.1-6.9-41.9-19.8-56-30.8-14.1 11-33.9 23.9-56 30.8-23.8 7.4-51.9 3.8-74.9-9.6-23.4-13.6-39.6-35.8-45.5-62.6-25-113.7 144.6-194.9 164-203.8z m-105.8 191c2.9 13.1 11 20.2 17.2 23.9 6 3.5 12.9 5.3 19.3 5.3 2.8 0 5.6-0.4 8-1.1 22.1-6.9 45.3-27.1 52.3-34.2l21.4-22 21.4 21.9c7 7.2 30.2 27.4 52.3 34.3 7.9 2.5 18.7 0.8 27.3-4.2 6.2-3.6 14.3-10.7 17.2-23.9 11.3-51.5-73.8-107.6-118.2-130.7-44.3 23.1-129.5 79.2-118.2 130.7zM305.3 183.7c-8.6-2.7-16.1-10.4-16.1-10.4s-7.5 7.7-16.1 10.4c-7.4 2.3-18.1-1.9-20.4-12.4-5.1-23.1 36.5-42.2 36.5-42.2s41.6 19 36.5 42.2c-2.3 10.5-13.1 14.7-20.4 12.4zM291.6 308.6h-4c-43.6-2.4-125.8-31.8-125.1-125.8 0.8-103.2 103.5-188.4 107.9-192l8.2-6.7h22l8.2 6.7c4.4 3.6 107.1 88.9 107.9 192 0.7 94-81.5 123.4-125.1 125.8z m-2-254.3c-25.2 25.6-67.1 76.2-67.5 128.9-0.2 25.6 9.6 42.8 30.8 54.4 15.5 8.5 32 10.8 36.7 11.3 4.9-0.5 21.2-2.9 36.7-11.3 21.2-11.6 31-28.8 30.8-54.4-0.4-52.7-42.4-103.3-67.5-128.9zM744.5 415.9H269.2c-65.3 0-118.3 53.1-118.3 118.3 0 65.3 53.1 118.3 118.3 118.3h237.7v59.6H269.2c-98.1 0-178-79.8-178-178 0-98.1 79.8-178 178-178h475.3c65.3 0 118.3-53.1 118.3-118.3 0-65.3-53.1-118.3-118.3-118.3H473.7V60h270.8c98.1 0 178 79.8 178 178-0.1 98.1-79.9 177.9-178 177.9z"  horiz-adv-x="1024" />
      
      <glyph glyph-name="zidongtiaodushezhi" unicode="&#58895;" d="M662.2 482.6L616.1 456c-17.1 18.2-39.4 31.4-64.5 37.3v53.2H492v-53.2c-25.1-5.9-47.4-19.1-64.5-37.3l-46.1 26.6-29.8-51.6 46.1-26.6c-3.6-11.8-5.5-24.3-5.5-37.3s1.9-25.5 5.5-37.3l-46.1-26.6 29.8-51.6 46.1 26.6c17.1-18.2 39.4-31.4 64.5-37.3v-53.2h59.6V241c25.1 5.9 47.4 19.1 64.5 37.3l46.1-26.6 29.8 51.6-46.1 26.6c3.6 11.8 5.5 24.3 5.5 37.3s-1.9 25.5-5.5 37.3L692 431l-29.8 51.6zM521.8 297.1c-38.6 0-70 31.4-70 70s31.4 70 70 70 70-31.4 70-70-31.4-70-70-70zM154.5 641.6h783.6L780.8 798.9l-42.1-42.2 55.5-55.5H94.9v-446.9h59.6zM869.5 126.4H85.9l157.3-157.3 42.1 42.2-55.5 55.5h699.3V513.7h-59.6z"  horiz-adv-x="1024" />
      
      <glyph glyph-name="zidongfaban" unicode="&#58896;" d="M902.6 323.5c9.3 0 18 3.7 24.4 10.3 11.6 12 11.2 27.9 10.8 41.9V697.4c0 39.4-23.9 80.1-63.9 80.1H158.3c-40 0-72.2-43.6-72.2-79.8v-320c0-29.5 26.5-54.4 57.9-54.4h39.5c13.2-50.5 59.3-87.9 113.9-87.9s100.7 37.4 113.9 88h193.6c13.2-50.6 59.3-88 113.9-88 54.7 0 100.7 37.5 113.9 88.1h69.9z m-547.1 29.7c0-32.1-26.1-58.1-58.1-58.1-32.1 0-58.1 26.1-58.1 58.1s26.1 58.1 58.1 58.1 58.1-26.1 58.1-58.1z m421.4 0c0-32.1-26.1-58.1-58.1-58.1s-58.1 26.1-58.1 58.2c0 32 26.1 58.1 58.1 58.1 32-0.1 58.1-26.2 58.1-58.2z m-58.1 117.7c-54.6 0-100.6-37.3-113.9-87.8H411.2c-13.3 50.5-59.3 87.9-113.9 87.9s-100.7-37.4-113.9-87.9h-37.8V697.7c0 6.9 8.3 18.5 13.2 20.2h713.1c2.5-2.9 6.3-11.5 6.3-20.5v-314.3h-45.5c-13.3 50.4-59.3 87.8-113.9 87.8zM86.1 282.8h59.6v-125.5H86.1zM86.1 116h59.6v-125.5H86.1zM878.3 282.8h59.6v-125.5h-59.6zM878.3 116h59.6v-125.5h-59.6zM581 214.1l-38.8-38.8V265c0 16.5-13.3 29.8-29.8 29.8s-29.8-13.3-29.8-29.8v-89.7l-38.8 38.8c-11.6 11.6-30.5 11.6-42.2 0-11.6-11.6-11.6-30.5 0-42.1l110.7-110.7L623 172c11.6 11.6 11.6 30.5 0 42.1-11.5 11.6-30.4 11.6-42 0zM180.1 505.1h189.4V674.2H180.1v-169.1z m59.6 109.5h70.2v-50h-70.2v50zM408.5 505.1h190.6V674.2H408.5v-169.1z m59.6 109.5h71.4v-50h-71.4v50zM834.2 674.2H644.8V505h189.4V674.2z m-59.6-109.5h-70.2v50h70.2v-50z"  horiz-adv-x="1024" />
      
      <glyph glyph-name="yunyingjiankong" unicode="&#58897;" d="M915.7 787.3H108.3c-16.5 0-29.8-13.3-29.8-29.8v-602.3c0-16.5 13.3-29.8 29.8-29.8h807.3c16.5 0 29.8 13.3 29.8 29.8V757.4c0.1 16.5-13.3 29.9-29.7 29.9zM885.9 185H138.1V727.6h747.7l0.1-542.6zM820.7 40.4H203.3c-16.5 0-29.8-13.3-29.8-29.8s13.3-29.8 29.8-29.8h617.4c16.5 0 29.8 13.3 29.8 29.8 0 16.4-13.3 29.8-29.8 29.8zM499.3 244.6c150.1 0 283.4 75.8 339.6 193l6.2 12.9-6.2 12.9c-56.3 117.3-189.6 193-339.6 193s-283.4-75.8-339.6-193l-6.2-12.9 6.2-12.9c56.2-117.3 189.5-193 339.6-193z m0 352.1c119.6 0 229.7-58.2 279.2-146.3-49.5-88-159.6-146.3-279.2-146.3s-229.7 58.2-279.2 146.3c49.5 88.1 159.6 146.3 279.2 146.3zM499.3 351.3c54.7 0 99.1 44.5 99.1 99.1s-44.5 99.1-99.1 99.1-99.1-44.5-99.1-99.1 44.4-99.1 99.1-99.1z m0 138.7c21.8 0 39.5-17.7 39.5-39.5S521.1 411 499.3 411s-39.5 17.7-39.5 39.5c-0.1 21.7 17.7 39.5 39.5 39.5z"  horiz-adv-x="1024" />
      
      <glyph glyph-name="yunyingtongjibaobiao" unicode="&#58898;" d="M901.1 761.7H541.8V796c0 16.5-13.3 29.8-29.8 29.8s-29.8-13.3-29.8-29.8v-34.3H122.9c-16.5 0-29.8-13.3-29.8-29.8v-527.3c0-16.5 13.3-29.8 29.8-29.8h359.3v-61.6l-162.9-117c-13.4-9.6-16.4-28.2-6.8-41.6 5.8-8.1 15-12.4 24.2-12.4 6 0 12.1 1.8 17.4 5.6L512 61.3l157.9-113.5c13.4-9.6 32-6.6 41.6 6.8 9.6 13.4 6.6 32-6.8 41.6l-162.9 117v61.6h359.3c16.5 0 29.8 13.3 29.8 29.8V731.9c0 16.5-13.3 29.8-29.8 29.8z m-29.8-527.3H152.7V702.1h718.6v-467.7zM282.2 388.9L385 491.7l246.7-122.6c4.2-2.1 8.8-3.1 13.3-3.1 7.7 0 15.4 3 21.1 8.7L784 492.6c11.6 11.6 11.6 30.5 0 42.1s-30.5 11.6-42.1 0L639 432 392.3 554.6c-11.5 5.7-25.3 3.4-34.3-5.6L240 431c-11.6-11.6-11.6-30.5 0-42.1 11.7-11.7 30.6-11.7 42.2 0z"  horiz-adv-x="1024" />
      
      <glyph glyph-name="weixintiaoduguanli" unicode="&#58899;" d="M615.7 606.7c-23.4 0-46.7-6.1-67.5-17.6l-0.5-0.3c-38.8-22.3-62-60.8-62-103v-200.6c0-21.9-12.5-42-33.6-53.9-11.9-6.8-25.6-10.4-39.8-10.4-40.7 0-73.9 29.1-73.9 64.8 0 10.2 3 20.8 8.8 30.6 9 14.6 23.8 25.6 41.6 31 4.4 1.2 5.7 1.3 5.7 1.3v59.6c-6.4 0-12.8-1-21.9-3.6l-0.6-0.2c-32.2-9.6-59.1-29.9-75.8-57.2l-0.2-0.4c-11.3-19-17.3-40.2-17.3-61.2 0-68.6 59.9-124.4 133.5-124.4 24.5 0 48.5 6.3 69.3 18.2 39.9 22.5 63.7 62 63.7 105.7V485.8c0 20.6 12 39.8 32 51.3 11.8 6.6 25.1 10.1 38.4 10.1 38.6 0 69.9-27.5 69.9-61.3 0-10.5-2.6-19.8-7.8-28.3l-0.4-0.6c-8.1-13.9-22.5-24.4-40.6-29.6l-1.7-0.5c-1-0.3-1.7-0.3-2.2-0.3V367c2.8 0 11 0 21.2 3.4 32.5 9.5 59 29.5 74.7 56.4 10.9 17.9 16.5 37.8 16.5 59.2 0 66.5-58.1 120.7-129.5 120.7zM512 810.4C276.9 810.4 85.6 619.1 85.6 384S276.9-42.4 512-42.4 938.3 148.9 938.3 384C938.4 619.1 747.1 810.4 512 810.4z m0-793.1c-202.2 0-366.7 164.5-366.7 366.7S309.8 750.7 512 750.7 878.7 586.2 878.7 384 714.2 17.3 512 17.3z"  horiz-adv-x="1024" />
      
      <glyph glyph-name="lvyougongjiaoyunyingfenxi" unicode="&#58900;" d="M532.1 557.7c-2.3 10.5-13.1 14.7-20.4 12.4-8.6-2.7-16.1-10.4-16.1-10.4s-7.5 7.7-16.1 10.4c-7.4 2.3-18.1-1.9-20.4-12.4-5.1-23.1 36.5-42.2 36.5-42.2s41.6 19.1 36.5 42.2zM476.7 377.3l8.2-6.7h22l8.2 6.7c4.4 3.6 107.1 88.9 107.9 192 0.7 93.9-81.5 123.4-125.1 125.8h-4c-43.6-2.4-125.8-31.8-125.1-125.8 0.9-103.2 103.6-188.5 107.9-192z m-17.4 246.8c15.5 8.5 32 10.8 36.7 11.3 4.9-0.5 21.2-2.9 36.7-11.3 21.2-11.6 31-28.8 30.8-54.4-0.4-52.8-42.3-103.3-67.5-128.9-25.2 25.6-67.1 76.2-67.5 128.9-0.2 25.6 9.6 42.9 30.8 54.4zM915.7 787.3H108.3c-16.5 0-29.8-13.3-29.8-29.8v-602.3c0-16.5 13.3-29.8 29.8-29.8h807.3c16.5 0 29.8 13.3 29.8 29.8V757.4c0.1 16.5-13.3 29.9-29.7 29.9zM885.9 185H138.1V727.6h747.7l0.1-542.6zM820.7 40.4H203.3c-16.5 0-29.8-13.3-29.8-29.8s13.3-29.8 29.8-29.8h617.4c16.5 0 29.8 13.3 29.8 29.8s-13.3 29.8-29.8 29.8zM330.1 328l139.5-85.3 96.6 61.3 167.4-106.2 98.6 207.6-53.8 25.6-69.7-146.8-142.4 90.4-97.3-61.7-140 85.6-15.8-10.3c-25.4-16.6-152.7-99.8-162.5-107l35.2-48.1c6.7 4.8 86.3 57 144.2 94.9z"  horiz-adv-x="1024" />
      
      <glyph glyph-name="shouye" unicode="&#58901;" d="M949.1 439.6L531.3 793.9c-11.1 9.4-27.4 9.4-38.5 0L74.9 439.6c-12.6-10.6-14.1-29.5-3.5-42 10.6-12.6 29.5-14.1 42-3.5l398.6 338 398.5-337.9c5.6-4.8 12.4-7.1 19.3-7.1 8.5 0 16.9 3.6 22.7 10.5 10.7 12.6 9.1 31.4-3.4 42zM798.2 415.1v-388.2H658.4V319.7c0 16.5-13.3 29.8-29.8 29.8H395.4c-16.5 0-29.8-13.3-29.8-29.8v-292.8H225.8V415.1h-59.6v-418c0-16.5 13.3-29.8 29.8-29.8h199.3c16.5 0 29.8 13.3 29.8 29.8V289.9h173.7V-3c0-16.5 13.3-29.8 29.8-29.8H828c16.5 0 29.8 13.3 29.8 29.8V415h-59.6v0.1z"  horiz-adv-x="1024" />
      
      <glyph glyph-name="zhongduanwenjianfabuguanli" unicode="&#58902;" d="M899.9 801.7H124.1c-16.5 0-29.8-13.3-29.8-29.8v-775.8c0-16.5 13.3-29.8 29.8-29.8h775.8c16.5 0 29.8 13.3 29.8 29.8V771.9c0 16.5-13.3 29.8-29.8 29.8z m-29.8-775.8H153.9V448.8h716.2v-422.9z m0 482.5H153.9V742.1h716.2v-233.7zM259.7 649.9h64.4v-59.6h-64.4zM394.2 649.9h64.4v-59.6h-64.4zM528.6 649.9H593v-59.6h-64.4zM487.7 170.9h132.7v-59.6H487.7zM259.7 76.7c5.8-5.8 13.4-8.7 21.1-8.7s15.3 2.9 21.1 8.7l125.7 125.7c11.6 11.6 11.6 30.5 0 42.1L301.9 370.4c-11.6 11.6-30.5 11.6-42.1 0s-11.6-30.5 0-42.1l104.7-104.7-104.8-104.7c-11.6-11.7-11.6-30.5 0-42.2z"  horiz-adv-x="1024" />
      
      <glyph glyph-name="zidongtiaodutongjibaobiao" unicode="&#58903;" d="M154.5 641.6h783.6L780.8 798.9l-42.1-42.2 55.5-55.5H94.9v-446.9h59.6zM869.5 126.4H85.9l157.3-157.3 42.1 42.2-55.5 55.5h699.3V513.7h-59.6zM488.4 568.5c-112.6 0-204.2-91.6-204.2-204.2s91.6-204.2 204.2-204.2 204.2 91.6 204.2 204.2v29.8H518.2V568.5h-29.8z m141.5-233.9c-13.8-65.5-72-114.8-141.5-114.8-79.7 0-144.6 64.9-144.6 144.6 0 69.5 49.3 127.7 114.8 141.5v-171.3h171.3zM727.2 459.3c0 82.4-67 149.4-149.4 149.4H548v-179.2h179.2v29.8z m-119.7 29.8V544c25.6-9 45.9-29.3 54.9-54.9h-54.9z"  horiz-adv-x="1024" />
      
      <glyph glyph-name="jichushuju" unicode="&#58892;" d="M521.7 229.4H142.5V738h702v-334.7c0-16.5 13.3-29.8 29.8-29.8s29.8 13.3 29.8 29.8V767.8c0 16.5-13.3 29.8-29.8 29.8H112.6c-16.5 0-29.8-13.3-29.8-29.8v-568.2c0-16.5 13.3-29.8 29.8-29.8h409c16.5 0 29.8 13.3 29.8 29.8s-13.3 29.8-29.7 29.8zM521.7 92.9H177.8c-16.5 0-29.8-13.3-29.8-29.8s13.3-29.8 29.8-29.8h343.9c16.5 0 29.8 13.3 29.8 29.8s-13.4 29.8-29.8 29.8zM926.3 256.1l-132.8 76.7c-9.2 5.3-20.6 5.3-29.8 0l-132.8-76.7c-9.2-5.3-14.9-15.2-14.9-25.8v-153.4c0-10.6 5.7-20.5 14.9-25.8l132.8-76.7c4.6-2.7 9.8-4 14.9-4s10.3 1.3 14.9 4l132.8 76.7c9.2 5.3 14.9 15.2 14.9 25.8V230.3c0 10.6-5.7 20.5-14.9 25.8z m-44.8-162l-103-59.5-103 59.5v119l103 59.5 103-59.5v-119zM778.5 153.6m-41.6 0a41.6 41.6 0 1 1 83.2 0 41.6 41.6 0 1 1-83.2 0Z"  horiz-adv-x="1024" />
      
      <glyph glyph-name="gongjiaokaoping" unicode="&#58904;" d="M458.2 9.6H123.9V763.1h684.8v-301.8c0-16.5 13.3-29.8 29.8-29.8s29.8 13.3 29.8 29.8V792.9c0 16.5-13.3 29.8-29.8 29.8H94.1c-16.5 0-29.8-13.3-29.8-29.8v-813.1c0-16.5 13.3-29.8 29.8-29.8h364c16.5 0 29.8 13.3 29.8 29.8 0.1 16.5-13.3 29.8-29.7 29.8zM585.7 133.3c4 0 8.1 0.8 12.1 2.6 15.1 6.7 21.8 24.3 15.2 39.3L450.6 541.9c-4.8 10.8-15.5 17.7-27.3 17.7h-0.6c-11.8 0-22.5-7-27.3-17.7L233 175.3c-6.7-15.1 0.1-32.7 15.2-39.3 15.1-6.7 32.7 0.1 39.3 15.2l40.9 92.4h189l40.9-92.4c5.1-11.2 16-17.9 27.4-17.9zM354.9 303.1L423 456.9l68.1-153.8H354.9zM627.7 500c16.5 0 29.8 13.3 29.8 29.8V582h52.2c16.5 0 29.8 13.3 29.8 29.8s-13.3 29.8-29.8 29.8h-52.2v52.2c0 16.5-13.3 29.8-29.8 29.8s-29.8-13.3-29.8-29.8v-52.2h-52.2c-16.5 0-29.8-13.3-29.8-29.8s13.3-29.8 29.8-29.8h52.2v-52.2c0-16.4 13.4-29.8 29.8-29.8zM950.9 335c-11.6 11.6-30.5 11.6-42.1 0L569.9-3.9c-11.6-11.6-11.6-30.5 0-42.1 5.8-5.8 13.4-8.7 21.1-8.7 7.6 0 15.3 2.9 21.1 8.7L951 292.9c11.6 11.6 11.6 30.5-0.1 42.1z"  horiz-adv-x="1024" />
      
      <glyph glyph-name="suixubashi" unicode="&#58905;" d="M192.8 422.8h385.6V635.1H192.8v-212.3z m59.6 152.7h266.4v-93.1H252.4v93.1zM850.5 659.4l-21.1 36.9c-15 26.3-43.1 42.6-73.4 42.6H151.1c-46.6 0-84.6-37.9-84.6-84.6v-424.8c0-46.6 37.9-84.6 84.6-84.6h29.1c15-66.9 74.3-116 145.7-116 71.5 0 130.8 49.2 145.7 116h80.3c18-63 75.6-107.8 143.5-107.8s125.5 44.8 143.5 107.8h34c46.6 0 84.6 37.9 84.6 84.6V460.1l-107 199.3z m-72.9 7.4l20.6-35.9 79.7-148.4H696.8v197h59.1c8.9-0.1 17.2-4.9 21.7-12.7z m-362-491.1c-1.4-48.8-40.9-87.1-89.7-87.1-48.9 0-88.3 38.2-89.7 87.1v0.4 2.3c0 49.5 40.3 89.8 89.8 89.8s89.8-40.3 89.8-89.8c-0.2-0.8-0.2-1.6-0.2-2.7z m369.1 2c-4.5-46.1-42.9-80.9-89.3-80.9s-84.8 34.8-89.4 80.9c-0.3 2.9-0.4 5.9-0.4 8.9 0 49.5 40.3 89.8 89.8 89.8s89.8-40.3 89.8-89.8c0-3-0.2-6-0.5-8.9z m88.2 26.9h-29.3c-8.9 73.9-72 131.4-148.3 131.4S555.9 278.5 547 204.6h-74.2c-12.4 69.9-73.6 123.2-147 123.2s-134.6-53.3-147-123.2h-27.7c-13.8 0-25 11.2-25 25V654.4c0 13.8 11.2 25 25 25h486.1v-256.6h260.7v-193.2c0-13.8-11.2-25-25-25z"  horiz-adv-x="1024" />
      
      <glyph glyph-name="xitongguanli" unicode="&#58906;" d="M915.7 787.3H108.3c-16.5 0-29.8-13.3-29.8-29.8v-602.3c0-16.5 13.3-29.8 29.8-29.8h807.3c16.5 0 29.8 13.3 29.8 29.8V757.4c0.1 16.5-13.3 29.9-29.7 29.9zM885.9 185H138.1V727.6h747.7l0.1-542.6zM820.7 40.4H203.3c-16.5 0-29.8-13.3-29.8-29.8s13.3-29.8 29.8-29.8h617.4c16.5 0 29.8 13.3 29.8 29.8 0 16.4-13.3 29.8-29.8 29.8zM371.6 336.3l46.1 26.6c17.1-18.2 39.4-31.4 64.5-37.3v-53.2h59.6v53.2c25.1 5.9 47.4 19.1 64.5 37.3l46.1-26.6 29.8 51.6-46.1 26.6c3.6 11.8 5.5 24.3 5.5 37.3s-1.9 25.5-5.5 37.3l46.1 26.6-29.8 51.6-46.1-26.6c-17.1 18.2-39.4 31.4-64.5 37.3v53.2h-59.6V578c-25.1-5.9-47.4-19.1-64.5-37.3l-46.1 26.6-29.8-51.6 46.1-26.6c-3.6-11.8-5.5-24.3-5.5-37.3s1.9-25.5 5.5-37.3L341.8 388l29.8-51.7zM512 521.9c38.6 0 70-31.4 70-70s-31.4-70-70-70-70 31.4-70 70 31.4 70 70 70z"  horiz-adv-x="1024" />
      
      <glyph glyph-name="fuwuzhiliangjianguan" unicode="&#58907;" d="M876.4 705.5c-49 49-114.2 76-183.5 76-68.1 0-132.2-26.1-180.9-73.5-101.4 98.7-264.1 97.8-364.4-2.5-49-49-76-114.1-76-183.5 0-69.3 27-134.5 76-183.5l343.3-343.3c5.8-5.8 13.4-8.7 21.1-8.7 7.6 0 15.3 2.9 21.1 8.7l343.3 343.3c49 49 76 114.2 76 183.5s-27 134.5-76 183.5z m-42.2-324.8L512 58.5 189.8 380.7c-37.7 37.7-58.5 87.9-58.5 141.3s20.8 103.6 58.5 141.3c39 39 90.1 58.4 141.3 58.4 50.1 0 100.1-18.7 138.7-56L230.5 426.5c-11.6-11.6-11.6-30.5 0-42.1 5.8-5.8 13.4-8.7 21.1-8.7 7.6 0 15.3 2.9 21.1 8.7l267.2 267.2 11.8 11.8c37.7 37.7 87.9 58.5 141.3 58.5 53.4 0 103.6-20.8 141.3-58.5s58.5-87.9 58.5-141.3c0-53.5-20.8-103.7-58.6-141.4zM703.4 525.9L487.4 310 376.8 420.6c-11.6 11.6-30.5 11.6-42.1 0s-11.6-30.5 0-42.1l131.7-131.7c5.8-5.8 13.4-8.7 21.1-8.7 7.6 0 15.3 2.9 21.1 8.7l237 237c11.6 11.6 11.6 30.5 0 42.1-11.7 11.6-30.6 11.6-42.2 0z"  horiz-adv-x="1024" />
      
      <glyph glyph-name="zhucaidan" unicode="&#58908;" d="M286.2 415.1h190v190c0 104.8-85.2 190-190 190s-190-85.2-190-190 85.3-190 190-190z m0 320.5c71.9 0 130.4-58.5 130.4-130.4v-130.4H286.2c-71.9 0-130.4 58.5-130.4 130.4s58.5 130.4 130.4 130.4zM927.8 605.1c0 104.8-85.2 190-190 190s-190-85.2-190-190v-190h190c104.7 0 190 85.3 190 190z m-320.5 0c0 71.9 58.5 130.4 130.4 130.4S868.1 677 868.1 605.1s-58.5-130.4-130.4-130.4H607.3V605.1zM96.4 162.9c0-104.8 85.2-190 190-190s190 85.2 190 190v190h-190c-104.8 0-190-85.3-190-190z m320.4 0c0-71.9-58.5-130.4-130.4-130.4-71.9-0.1-130.4 58.5-130.4 130.4s58.5 130.4 130.4 130.4h130.4v-130.4zM737.8 352.9h-190v-190c0-104.8 85.2-190 190-190s190 85.2 190 190-85.3 190-190 190z m0-320.5c-71.9 0-130.4 58.5-130.4 130.4V293.3h130.4c71.9 0 130.4-58.5 130.4-130.4s-58.5-130.5-130.4-130.5z"  horiz-adv-x="1024" />
      
      <glyph glyph-name="quanxianguanli" unicode="&#58909;" d="M905.6 375.4c-11.6 11.6-30.5 11.6-42.1 0L607.8 119.7 493.1 234.4c-11.6 11.6-30.5 11.6-42.1 0s-11.6-30.5 0-42.1l135.8-135.8c5.8-5.8 13.4-8.7 21.1-8.7 7.6 0 15.3 2.9 21.1 8.7l276.7 276.7c11.5 11.6 11.5 30.5-0.1 42.2zM796.5 195.6c-13.9-8.8-18.1-27.2-9.3-41.1 28.3-44.9 45.4-95.7 50-148.4H170.6c15.1 170.6 158.8 304.8 333.3 304.8 65.4 0 128.7-18.8 183.1-54.5 13.8-9 32.2-5.2 41.3 8.6 9 13.8 5.2 32.2-8.6 41.3-26.3 17.2-54.4 31.1-83.7 41.5 73.9 44.8 123.3 126 123.3 218.5 0 140.8-114.6 255.4-255.4 255.4S248.5 707 248.5 566.2c0-92.5 49.5-173.7 123.4-218.5-152.7-54.4-262.2-200.4-262.2-371.5v-29.8h788.5v29.8c0 74.6-20.9 147.2-60.5 210-8.9 14-27.3 18.1-41.2 9.4zM308.1 566.2c0 108 87.9 195.8 195.8 195.8s195.8-87.8 195.8-195.8-87.8-195.8-195.8-195.8-195.8 87.9-195.8 195.8z"  horiz-adv-x="1024" />
      
      <glyph glyph-name="GISjiankong" unicode="&#58910;" d="M317.8 276.1L512 81.9l194.2 194.2c67.6 57.3 106.3 140.8 106.3 229.3 0 165.7-134.8 300.5-300.5 300.5S211.5 671.1 211.5 505.4c0-88.5 38.7-172 106.3-229.3zM512 746.3c132.8 0 240.9-108.1 240.9-240.9 0-67.6-28.2-131.6-77.8-177.2H674l-162-162-153.2 153.2-8.8 8.7h-1.1c-49.6 45.6-77.8 109.6-77.8 177.2 0 132.9 108.1 241 240.9 241zM753.2 250.6c-16 3.8-32.1-6.1-35.9-22.1-3.8-16 6.1-32.1 22.1-35.9 101.1-24 137.8-57.1 137.8-73.5 0-33.1-128.9-97.4-365.2-97.4s-365.2 64.4-365.2 97.4c0 16.7 37.8 50.4 141.9 74.4 16 3.7 26 19.7 22.3 35.8-3.7 16-19.7 26-35.8 22.3-121.2-28-188-75-188-132.5 0-103.1 213.7-157 424.8-157S936.8 16 936.8 119.2c0 56.6-65.2 103.2-183.6 131.4zM461.51085 471.003987a71.4 71.4 0 1 1 100.973086 100.976611 71.4 71.4 0 1 1-100.973086-100.976611Z"  horiz-adv-x="1024" />
      
      <glyph glyph-name="xianwangguihua" unicode="&#58911;" d="M902.5 775h-781c-16.5 0-29.8-13.3-29.8-29.8v-582.6c0-16.5 13.3-29.8 29.8-29.8h780.9c16.5 0 29.8 13.3 29.8 29.8V745.2c0.1 16.5-13.3 29.8-29.7 29.8z m-29.8-582.5H151.3v523h721.3v-523h0.1zM809.4 52.6h-621c-16.5 0-29.8-13.3-29.8-29.8s13.3-29.8 29.8-29.8h621c16.5 0 29.8 13.3 29.8 29.8s-13.3 29.8-29.8 29.8zM274.4 556c20.4 0 38.2 11.3 47.4 28.1h344.9c27.4 0 49.6-22.3 49.6-49.6 0-27.4-22.3-49.6-49.6-49.6h-98.6v70l-92.9-70H357.3c-60.2 0-109.2-49-109.2-109.2s49-109.2 109.2-109.2h347.2c9.7-14.6 26.2-24.2 45.1-24.2 29.8 0 54 24.2 54 54s-24.2 54-54 54c-18.8 0-35.4-9.6-45.1-24.2H357.3c-27.4 0-49.6 22.3-49.6 49.6 0 27.4 22.3 49.6 49.6 49.6h117.9l92.9-70v70h98.6c60.2 0 109.2 49 109.2 109.2s-49 109.2-109.2 109.2h-350c-9.9 12.4-25.1 20.4-42.3 20.4-29.8 0-54-24.2-54-54 0-29.9 24.2-54.1 54-54.1z"  horiz-adv-x="1024" />
      
      <glyph glyph-name="yiqizhanchangguanli" unicode="&#58912;" d="M896.6 798.4H127.4c-16.5 0-29.8-13.3-29.8-29.8v-769.2c0-16.5 13.3-29.8 29.8-29.8h769.2c16.5 0 29.8 13.3 29.8 29.8V768.6c0 16.4-13.4 29.8-29.8 29.8z m-29.8-769.2H157.2V738.8h709.6v-709.6zM400.2 300.4h126.6c94.8 0 171.9 77.1 171.9 171.9s-77.1 171.9-171.9 171.9H340.6v-530.8h59.6v187z m0 284.2h126.6c61.9 0 112.3-50.4 112.3-112.3S588.7 360 526.8 360H400.2V584.6z"  horiz-adv-x="1024" />
      
    </font>
</defs>
</svg>
